<svg width="36" height="33" viewBox="0 0 35 29" fill="none" xmlns="http://www.w3.org/2000/svg">
<g filter="url(#filter0_d_321_13227)">
<path fill-rule="evenodd" clip-rule="evenodd" d="M7.0738 0.605663C6.85809 0.658669 6.45105 0.816409 6.16927 0.956338C5.73669 1.17108 5.58193 1.28616 5.17494 1.69598C4.62835 2.24642 4.40662 2.59064 4.16707 3.26058C4.00907 3.7025 4 3.76958 4 4.50101C4 5.23244 4.00907 5.29952 4.16707 5.74144C4.40603 6.40973 4.62749 6.75379 5.1751 7.30722C5.6014 7.73804 5.7217 7.82555 6.21497 8.06323C6.52176 8.2111 6.94549 8.36996 7.15656 8.4163C7.69713 8.5349 8.446 8.52509 8.96396 8.39263C10.0567 8.11319 10.7848 7.57801 11.468 6.55211C11.8025 6.04977 11.9279 5.90798 12.1956 5.72923C12.7465 5.36133 12.934 5.32757 14.4251 5.32757C15.9163 5.32757 16.1038 5.36133 16.6547 5.72923C16.9224 5.90798 17.0478 6.04977 17.3823 6.55211C17.9146 7.35132 18.3949 7.78428 19.1323 8.1293C21.1065 9.05308 23.493 8.19948 24.4307 6.23413C24.9571 5.13096 24.9571 3.87106 24.4307 2.7679C23.493 0.802544 21.1065 -0.0510545 19.1323 0.872722C18.3959 1.21732 17.9145 1.65076 17.3848 2.44618C16.94 3.11415 16.6754 3.34228 16.1049 3.54993C15.8239 3.65216 15.6472 3.66917 14.6543 3.68965C12.6475 3.73097 12.2196 3.56321 11.4641 2.43871C10.7805 1.42145 10.0505 0.88728 8.96396 0.609395C8.42547 0.471653 7.62589 0.470106 7.0738 0.605663ZM21.6242 4.50101V5.30091H20.8243H20.0244V4.50101V3.70111H20.8243H21.6242V4.50101ZM13.4653 8.60966C10.9934 9.24793 9.72552 11.9419 10.8188 14.2331C11.7565 16.1985 14.143 17.0521 16.1172 16.1283C16.8545 15.7833 17.3349 15.3503 17.8672 14.5511C18.2017 14.0488 18.327 13.907 18.5947 13.7282C19.1457 13.3603 19.3332 13.3266 20.8243 13.3266C22.3155 13.3266 22.503 13.3603 23.0539 13.7282C23.3216 13.907 23.447 14.0488 23.7815 14.5511C24.4647 15.577 25.1928 16.1122 26.2855 16.3916C26.8035 16.5241 27.5523 16.5339 28.0929 16.4153C28.304 16.3689 28.7277 16.2101 29.0345 16.0622C29.5278 15.8245 29.6481 15.737 30.0744 15.3062C30.622 14.7528 30.8434 14.4087 31.0824 13.7404C31.2404 13.2985 31.2495 13.2314 31.2495 12.5C31.2495 11.7686 31.2404 11.7015 31.0824 11.2596C30.8426 10.5889 30.6211 10.2453 30.0716 9.69209C29.6441 9.26169 29.5209 9.17215 29.0317 8.9364C28.7264 8.78932 28.304 8.63105 28.0929 8.58471C27.5523 8.46611 26.8035 8.47592 26.2855 8.60839C25.1942 8.8875 24.4646 9.42321 23.784 10.4452C23.3392 11.1131 23.0746 11.3413 22.5041 11.5489C22.2231 11.6511 22.0464 11.6682 21.0535 11.6886C19.0467 11.73 18.6188 11.5622 17.8633 10.4377C17.1797 9.42044 16.4497 8.88627 15.3632 8.60839C14.8082 8.46648 14.0178 8.46702 13.4653 8.60966ZM15.225 12.5V13.2999H14.4251H13.6252V12.5V11.7001H14.4251H15.225V12.5ZM7.0738 16.6036C6.85809 16.6566 6.45105 16.8144 6.16927 16.9543C5.73669 17.1691 5.58193 17.2841 5.17494 17.694C4.62835 18.2444 4.40662 18.5886 4.16707 19.2586C4.00907 19.7005 4 19.7676 4 20.499C4 21.2304 4.00907 21.2975 4.16707 21.7394C4.40603 22.4077 4.62749 22.7518 5.1751 23.3052C5.6014 23.736 5.7217 23.8235 6.21497 24.0612C6.52176 24.2091 6.94549 24.3679 7.15656 24.4143C7.69713 24.5329 8.446 24.5231 8.96396 24.3906C10.0567 24.1112 10.7848 23.576 11.468 22.5501C11.8025 22.0478 11.9279 21.906 12.1956 21.7272C12.7465 21.3593 12.934 21.3256 14.4251 21.3256C15.9163 21.3256 16.1038 21.3593 16.6547 21.7272C16.9224 21.906 17.0478 22.0478 17.3823 22.5501C17.9146 23.3493 18.3949 23.7823 19.1323 24.1273C21.1065 25.0511 23.493 24.1975 24.4307 22.2321C24.9571 21.1289 24.9571 19.869 24.4307 18.7659C23.493 16.8005 21.1065 15.9469 19.1323 16.8707C18.3959 17.2153 17.9145 17.6487 17.3848 18.4442C16.94 19.1121 16.6754 19.3403 16.1049 19.5479C15.8239 19.6501 15.6472 19.6671 14.6543 19.6876C12.6475 19.729 12.2196 19.5612 11.4641 18.4367C10.7805 17.4194 10.0505 16.8853 8.96396 16.6074C8.42547 16.4696 7.62589 16.4681 7.0738 16.6036ZM21.6242 20.499V21.2989H20.8243H20.0244V20.499V19.6991H20.8243H21.6242V20.499Z" fill="white"/>
</g>
<defs>
<filter id="filter0_d_321_13227" x="0" y="0.5" width="35.25" height="32" filterUnits="userSpaceOnUse" color-interpolation-filters="sRGB">
<feFlood flood-opacity="0" result="BackgroundImageFix"/>
<feColorMatrix in="SourceAlpha" type="matrix" values="0 0 0 0 0 0 0 0 0 0 0 0 0 0 0 0 0 0 127 0" result="hardAlpha"/>
<feOffset dy="4"/>
<feGaussianBlur stdDeviation="2"/>
<feComposite in2="hardAlpha" operator="out"/>
<feColorMatrix type="matrix" values="0 0 0 0 0 0 0 0 0 0 0 0 0 0 0 0 0 0 0.25 0"/>
<feBlend mode="normal" in2="BackgroundImageFix" result="effect1_dropShadow_321_13227"/>
<feBlend mode="normal" in="SourceGraphic" in2="effect1_dropShadow_321_13227" result="shape"/>
</filter>
</defs>
</svg>
